<?xml version="1.0" encoding="UTF-8"?>
<svg id="Layer_1" xmlns="http://www.w3.org/2000/svg" version="1.1" viewBox="0 0 2108.4 564.2">
  <!-- Generator: Adobe Illustrator 29.2.1, SVG Export Plug-In . SVG Version: 2.1.0 Build 116)  -->
  <defs>
    <style>
      .st0 {
        fill: #fff;
      }

      .st1 {
        fill: #fe5000;
      }
    </style>
  </defs>
  <path class="st1" d="M1033.3,452.1c11.3,0,16.7-13.8,8.5-21.5l-148.6-138.4c-3.6-3.4-9-3.9-13.2-1.4l-110.1,67c-6.2,3.8-7.1,12.5-1.8,17.4l56.6,52.7c16.6,15.5,38.5,24.1,61.2,24.1h147.4Z"/>
  <path class="st1" d="M190.7,564.2h124.6c29.9,0,59.3-8.2,84.8-23.8L1250.5,22.8c10.6-6.5,6-22.8-6.4-22.8h-124.6c-29.9,0-59.3,8.2-84.8,23.8L184.3,541.4c-10.6,6.5-6,22.8,6.4,22.8"/>
  <path class="st1" d="M624.7,230.7l110.1-67c6.2-3.8,7.1-12.5,1.8-17.4l-36.2-33.7c-16.6-15.5-38.5-24.1-61.2-24.1h-147.4c-11.3,0-16.7,13.8-8.5,21.5l128.2,119.4c3.6,3.4,9,3.9,13.2,1.4"/>
  <path class="st0" d="M1484.7,140.7h-357.4c-14,0-21,17-11.1,26.9l16,15.9c4.3,4.3,6,10.6,4.3,16.5l-52.6,184.6c-2.2,7.6,3.5,15.1,11.4,15.1h327.1c5.3,0,10-3.5,11.4-8.6l30.7-124.2c2.2-7.6-3.5-15.1-11.4-15.1h-145.7c-13.3,0-17.4,18.2-5.3,23.8l40.7,37.8c4.1,1.9,2.7,8-1.8,8h-133c-7.9,0-13.6-7.5-11.4-15.1l22.4-78.6c1.4-5.1,6.1-8.6,11.4-8.6h238.6c5.3,0,10-3.5,11.4-8.6l15.6-54.6c2.2-7.6-3.5-15.1-11.4-15.1"/>
  <path class="st0" d="M396.7,140.7h-60.1c-5,0-9.3,3.3-10.7,8.1l-32.4,113.7c-2.3,8.1-12.5,10.8-18.5,4.8l-122.7-123.2c-2.1-2.1-4.9-3.3-7.9-3.3H38.1c-14,0-21,17-11.1,26.9l20.6,20.4c4.3,4.3,6,10.6,4.3,16.5L.4,385.4c-2,7.1,3.3,14.1,10.7,14.1h61.3c4.9,0,9.3-3.3,10.7-8l32.4-113.7c2.3-8.1,12.5-10.8,18.5-4.8l122.7,123.2c2.1,2.1,4.9,3.3,7.9,3.3h64.9c5,0,9.3-3.3,10.7-8l67.4-236.6c2-7.1-3.3-14.1-10.7-14.1"/>
  <polygon class="st0" points="1621.2 155.9 1621.2 237.4 1621.4 248.4 1597.4 248.4 1597.6 237.4 1597.6 155.9 1574.4 155.9 1574.4 140.4 1644.6 140.4 1644.6 155.9 1621.2 155.9"/>
  <path class="st0" d="M1692.6,237.4l.2,11h-24.2l.2-11v-86l-.2-11h33.4c29.5,0,36.9,14.2,36.9,31.6v.3c0,11.3-3.9,21.2-15,26.6l17.8,49.6h-25.4l-15.4-45h-8.4v34h0ZM1692.6,188.3h6.2c13.1,0,15.6-7.2,15.6-16v-.3c0-8.9-2.7-16-15.2-16h-6.6v32.3h0Z"/>
  <path class="st0" d="M1836.6,140.4l-.2,11v70.4c0,18.3-13.3,28.4-34.9,28.4s-34.7-10.1-34.7-28.4v-70.4l-.2-11h24l-.2,11v68.6c0,8.8,2.9,13.6,11.1,13.6s11.1-4.8,11.1-13.6v-68.6l-.2-11h24.2Z"/>
  <path class="st0" d="M1878.2,244.3c-7.6-5.1-11.7-13.1-11.7-34.8v-30.4c0-21.6,4.3-29.8,11.7-34.8,4.9-3.3,12.1-5.9,23.2-5.9s18.7,2.4,24,6c7.2,5,11.5,13.3,11.5,32.3v.3h-24.2v-.3c0-13.1,0-21.8-11.1-21.8s-11.1,8.6-11.1,20.1v38.2c0,11.5,0,20.1,11.3,20.1s11.3-8.9,11.3-24.2h0c0-.1,24.2-.1,24.2-.1h0c0,21.8-4.7,30.1-12.1,35.1-4.7,3.2-12.3,5.9-23.6,5.9s-18.7-2.7-23.4-5.9"/>
  <path class="st0" d="M2039.2,140.4l-25.2,39.7,26.9,68.3h-25.6l-18.1-48.7-8.6,13.3v24.3l.2,11h-24.2l.2-11v-86l-.2-11h24.2l-.2,11v19.5c0,3.3-.2,8.3-.4,11.5h.8c1.6-3.2,4.1-7.2,5.9-10.6l18.7-31.4h25.6Z"/>
  <path class="st0" d="M1594.9,399.4l.2-11v-86l-.2-11h32.2c24.2,0,36.5,10.6,36.5,27.2v.3c0,11.5-5.5,19-15.4,23.6v.6c11.3,4.1,18.3,12.2,18.3,24.3v.3c0,20.9-13.7,31.7-39,31.7h-32.6,0ZM1618.9,335.2h5.9c10.5,0,15-6.2,15-15v-.3c0-8.2-4.9-13-14.6-13h-6.4v28.3h0ZM1625.7,383.9c12.3,0,16.2-6,16.2-16.9v-.3c0-10.1-4.9-15.7-16.6-15.7h-6.4v32.9h6.8Z"/>
  <path class="st0" d="M1703.6,395.3c-7.6-5.1-11.5-13.8-11.5-34.8v-30.4c0-21,3.9-29.6,11.5-34.8,4.7-3.2,12.5-5.9,23.6-5.9s18.9,2.7,23.6,5.9c7.6,5.1,11.7,13.8,11.7,34.8v30.4c0,21-4.1,29.6-11.7,34.8-4.7,3.2-12.5,5.9-23.6,5.9s-18.9-2.7-23.6-5.9M1738.5,364.5v-38.2c0-11.3,0-20.1-11.3-20.1s-11.1,8.8-11.1,20.1v38.2c0,11.3,0,20.1,11.1,20.1s11.3-8.8,11.3-20.1"/>
  <path class="st0" d="M1851.7,297.6c8.2,5.6,11.5,13.8,11.5,30.7v34.3c0,16.9-3.3,25.1-11.5,30.7-6.2,4.2-13.5,6.2-22.8,6.2h-35.9l.2-11v-86l-.2-11h35.9c9.2,0,16.6,2,22.8,6.2M1817.1,306.9v76.9h8.2c11.9,0,13.7-8.8,13.7-16.5v-44c0-7.1-1.8-16.5-13.7-16.5h-8.2Z"/>
  <polygon class="st0" points="1918.2 291.4 1918 302.4 1918 388.4 1918.2 399.4 1894 399.4 1894.2 388.4 1894.2 302.4 1894 291.4 1918.2 291.4"/>
  <polygon class="st0" points="1975.8 351.1 1975.8 383.9 2012.8 383.9 2012.8 399.4 1951.8 399.4 1952.1 388.4 1952.1 302.4 1951.8 291.4 2011.9 291.4 2011.9 306.9 1975.8 306.9 1975.8 335 2004.2 335 2004.2 351.1 1975.8 351.1"/>
  <path class="st0" d="M2056.5,369.6c2.1,10.7,7.2,15,14.8,15s12.7-3.9,12.7-10.4-5.3-12.1-15.4-18.6l-12.1-7.9c-14.4-9.5-20.9-18.9-20.9-30.5s14.4-27.6,35.5-27.6,32.4,10.3,35.3,27l-23.4,2.3c-1.2-7.9-4.7-12.7-12.1-12.7s-10.9,4.2-10.9,10.3,5.3,11.6,15.4,18.3l12.1,7.7c14.4,9.5,20.9,19.2,20.9,31,0,17.1-14.4,27.8-36.9,27.8s-35.1-10.7-38.4-29.3l23.4-2.3Z"/>
</svg>